<mxfile host="app.diagrams.net" modified="2024-08-04T08:31:56.610Z" agent="Mozilla/5.0 (Macintosh; Intel Mac OS X 10_15_7) AppleWebKit/537.36 (KHTML, like Gecko) Chrome/126.0.0.0 Safari/537.36" etag="lQ1GrfngCsU5yaDplY3r" version="24.2.3" type="device">
  <diagram name="Page-1" id="_-10GnOW3q0OUTJ9YQ4u">
    <mxGraphModel dx="2328" dy="1512" grid="1" gridSize="10" guides="1" tooltips="1" connect="1" arrows="1" fold="1" page="1" pageScale="1" pageWidth="850" pageHeight="1100" math="0" shadow="0">
      <root>
        <mxCell id="0" />
        <mxCell id="1" parent="0" />
        <mxCell id="zypsdBxcPxv5_3bh2dCD-22" value="" style="group" vertex="1" connectable="0" parent="1">
          <mxGeometry x="169" y="190" width="1260" height="480" as="geometry" />
        </mxCell>
        <mxCell id="zypsdBxcPxv5_3bh2dCD-42" value="" style="group" vertex="1" connectable="0" parent="zypsdBxcPxv5_3bh2dCD-22">
          <mxGeometry width="1260" height="480" as="geometry" />
        </mxCell>
        <mxCell id="zypsdBxcPxv5_3bh2dCD-14" value="" style="rounded=0;whiteSpace=wrap;html=1;fillColor=#4A4A4A;" vertex="1" parent="zypsdBxcPxv5_3bh2dCD-42">
          <mxGeometry x="1.35" width="1238.65" height="480" as="geometry" />
        </mxCell>
        <mxCell id="zypsdBxcPxv5_3bh2dCD-13" value="" style="line;strokeWidth=1;rotatable=0;dashed=0;labelPosition=right;align=left;verticalAlign=middle;spacingTop=0;spacingLeft=6;points=[];portConstraint=eastwest;strokeColor=#FFFFFF;" vertex="1" parent="zypsdBxcPxv5_3bh2dCD-42">
          <mxGeometry y="149.19" width="1240" height="12.97" as="geometry" />
        </mxCell>
        <mxCell id="zypsdBxcPxv5_3bh2dCD-17" value="" style="line;strokeWidth=1;rotatable=0;dashed=0;labelPosition=right;align=left;verticalAlign=middle;spacingTop=0;spacingLeft=6;points=[];portConstraint=eastwest;strokeColor=#FFFFFF;" vertex="1" parent="zypsdBxcPxv5_3bh2dCD-42">
          <mxGeometry x="1.35" y="329.51" width="1258.65" height="12.97" as="geometry" />
        </mxCell>
        <mxCell id="zypsdBxcPxv5_3bh2dCD-54" value="" style="edgeStyle=orthogonalEdgeStyle;rounded=0;orthogonalLoop=1;jettySize=auto;html=1;strokeColor=#178AC2;" edge="1" parent="zypsdBxcPxv5_3bh2dCD-42" source="zypsdBxcPxv5_3bh2dCD-43" target="zypsdBxcPxv5_3bh2dCD-53">
          <mxGeometry relative="1" as="geometry" />
        </mxCell>
        <mxCell id="zypsdBxcPxv5_3bh2dCD-43" value="&lt;div style=&quot;&quot;&gt;&lt;font size=&quot;1&quot; face=&quot;-apple-system, system-ui, Segoe WPC, Segoe UI, system-ui, Ubuntu, Droid Sans, sans-serif&quot; color=&quot;#000000&quot;&gt;&lt;b style=&quot;font-size: 12px;&quot;&gt;8. Security team will be notified when code is deployed to prod&lt;/b&gt;&lt;/font&gt;&lt;/div&gt;" style="whiteSpace=wrap;html=1;aspect=fixed;fillColor=#178AC2;fontColor=#ffffff;strokeColor=#006EAF;align=center;" vertex="1" parent="zypsdBxcPxv5_3bh2dCD-42">
          <mxGeometry x="861" y="30" width="90" height="90" as="geometry" />
        </mxCell>
        <mxCell id="zypsdBxcPxv5_3bh2dCD-56" value="" style="edgeStyle=orthogonalEdgeStyle;rounded=0;orthogonalLoop=1;jettySize=auto;html=1;strokeColor=#178AC2;" edge="1" parent="zypsdBxcPxv5_3bh2dCD-42" source="zypsdBxcPxv5_3bh2dCD-41" target="zypsdBxcPxv5_3bh2dCD-43">
          <mxGeometry relative="1" as="geometry" />
        </mxCell>
        <mxCell id="zypsdBxcPxv5_3bh2dCD-41" value="&lt;div style=&quot;&quot;&gt;&lt;strong style=&quot;background-color: initial; font-family: -apple-system, &amp;quot;system-ui&amp;quot;, &amp;quot;Segoe WPC&amp;quot;, &amp;quot;Segoe UI&amp;quot;, system-ui, Ubuntu, &amp;quot;Droid Sans&amp;quot;, sans-serif;&quot;&gt;&lt;font style=&quot;font-size: 11px;&quot; color=&quot;#000000&quot;&gt;7. DevSecOps team upon validation in vulnerability finding tool update the status of impediment&amp;nbsp;&lt;/font&gt;&lt;/strong&gt;&lt;/div&gt;" style="whiteSpace=wrap;html=1;aspect=fixed;fillColor=#178AC2;fontColor=#ffffff;strokeColor=#006EAF;align=center;" vertex="1" parent="zypsdBxcPxv5_3bh2dCD-42">
          <mxGeometry x="671" y="20" width="110" height="110" as="geometry" />
        </mxCell>
        <mxCell id="zypsdBxcPxv5_3bh2dCD-18" value="&lt;div style=&quot;&quot;&gt;&lt;strong style=&quot;background-color: initial; font-family: -apple-system, &amp;quot;system-ui&amp;quot;, &amp;quot;Segoe WPC&amp;quot;, &amp;quot;Segoe UI&amp;quot;, system-ui, Ubuntu, &amp;quot;Droid Sans&amp;quot;, sans-serif; font-size: 14px;&quot;&gt;&lt;font color=&quot;#000000&quot;&gt;1. Code Commit &amp;amp; Trigger Build&lt;/font&gt;&lt;/strong&gt;&lt;/div&gt;" style="whiteSpace=wrap;html=1;aspect=fixed;fillColor=#178AC2;fontColor=#ffffff;strokeColor=#006EAF;align=center;" vertex="1" parent="zypsdBxcPxv5_3bh2dCD-42">
          <mxGeometry x="21" y="195" width="90" height="90" as="geometry" />
        </mxCell>
        <mxCell id="zypsdBxcPxv5_3bh2dCD-19" value="&lt;div style=&quot;&quot;&gt;&lt;strong style=&quot;background-color: initial; font-family: -apple-system, &amp;quot;system-ui&amp;quot;, &amp;quot;Segoe WPC&amp;quot;, &amp;quot;Segoe UI&amp;quot;, system-ui, Ubuntu, &amp;quot;Droid Sans&amp;quot;, sans-serif; font-size: 14px;&quot;&gt;&lt;font color=&quot;#000000&quot;&gt;2. CI Triggers Trivy scan&lt;/font&gt;&lt;/strong&gt;&lt;/div&gt;" style="whiteSpace=wrap;html=1;aspect=fixed;fillColor=#178AC2;fontColor=#ffffff;strokeColor=#006EAF;align=center;" vertex="1" parent="zypsdBxcPxv5_3bh2dCD-42">
          <mxGeometry x="171" y="195" width="90" height="90" as="geometry" />
        </mxCell>
        <mxCell id="zypsdBxcPxv5_3bh2dCD-20" value="" style="edgeStyle=orthogonalEdgeStyle;rounded=0;orthogonalLoop=1;jettySize=auto;html=1;strokeColor=#178AC2;strokeWidth=1;fillColor=#1ba1e2;" edge="1" parent="zypsdBxcPxv5_3bh2dCD-42" source="zypsdBxcPxv5_3bh2dCD-18" target="zypsdBxcPxv5_3bh2dCD-19">
          <mxGeometry relative="1" as="geometry" />
        </mxCell>
        <mxCell id="zypsdBxcPxv5_3bh2dCD-23" value="High,&lt;br&gt;Critical&lt;br&gt;Issues" style="rhombus;whiteSpace=wrap;html=1;fillColor=#178AC2;" vertex="1" parent="zypsdBxcPxv5_3bh2dCD-42">
          <mxGeometry x="351" y="195" width="90.02" height="90" as="geometry" />
        </mxCell>
        <mxCell id="zypsdBxcPxv5_3bh2dCD-25" style="edgeStyle=orthogonalEdgeStyle;rounded=0;orthogonalLoop=1;jettySize=auto;html=1;strokeColor=#178AC2;" edge="1" parent="zypsdBxcPxv5_3bh2dCD-42" source="zypsdBxcPxv5_3bh2dCD-19" target="zypsdBxcPxv5_3bh2dCD-23">
          <mxGeometry relative="1" as="geometry" />
        </mxCell>
        <mxCell id="zypsdBxcPxv5_3bh2dCD-31" value="&lt;div style=&quot;&quot;&gt;&lt;strong style=&quot;background-color: initial; font-family: -apple-system, &amp;quot;system-ui&amp;quot;, &amp;quot;Segoe WPC&amp;quot;, &amp;quot;Segoe UI&amp;quot;, system-ui, Ubuntu, &amp;quot;Droid Sans&amp;quot;, sans-serif; font-size: 14px;&quot;&gt;&lt;font color=&quot;#000000&quot;&gt;3. High,Critical issue found&lt;/font&gt;&lt;/strong&gt;&lt;/div&gt;" style="whiteSpace=wrap;html=1;aspect=fixed;fillColor=#178AC2;fontColor=#ffffff;strokeColor=#006EAF;align=center;" vertex="1" parent="zypsdBxcPxv5_3bh2dCD-42">
          <mxGeometry x="351.02" y="30" width="90" height="90" as="geometry" />
        </mxCell>
        <mxCell id="zypsdBxcPxv5_3bh2dCD-34" value="" style="edgeStyle=orthogonalEdgeStyle;rounded=0;orthogonalLoop=1;jettySize=auto;html=1;strokeColor=#178AC2;" edge="1" parent="zypsdBxcPxv5_3bh2dCD-42" source="zypsdBxcPxv5_3bh2dCD-23" target="zypsdBxcPxv5_3bh2dCD-31">
          <mxGeometry relative="1" as="geometry" />
        </mxCell>
        <mxCell id="zypsdBxcPxv5_3bh2dCD-28" value="&lt;div style=&quot;&quot;&gt;&lt;font color=&quot;#000000&quot;&gt;&lt;strong style=&quot;background-color: initial; font-family: -apple-system, &amp;quot;system-ui&amp;quot;, &amp;quot;Segoe WPC&amp;quot;, &amp;quot;Segoe UI&amp;quot;, system-ui, Ubuntu, &amp;quot;Droid Sans&amp;quot;, sans-serif; font-size: 14px;&quot;&gt;3.&amp;nbsp;&lt;/strong&gt;&lt;span style=&quot;background-color: initial;&quot;&gt;&lt;font style=&quot;font-size: 14px;&quot;&gt;&lt;b style=&quot;&quot;&gt;Continue Build without any issues&lt;/b&gt;&lt;/font&gt;&lt;/span&gt;&lt;/font&gt;&lt;/div&gt;" style="whiteSpace=wrap;html=1;aspect=fixed;fillColor=#178AC2;fontColor=#ffffff;strokeColor=#006EAF;align=center;" vertex="1" parent="zypsdBxcPxv5_3bh2dCD-42">
          <mxGeometry x="351.02" y="360" width="90" height="90" as="geometry" />
        </mxCell>
        <mxCell id="zypsdBxcPxv5_3bh2dCD-29" value="" style="edgeStyle=orthogonalEdgeStyle;rounded=0;orthogonalLoop=1;jettySize=auto;html=1;strokeColor=#178AC2;" edge="1" parent="zypsdBxcPxv5_3bh2dCD-42" source="zypsdBxcPxv5_3bh2dCD-23" target="zypsdBxcPxv5_3bh2dCD-28">
          <mxGeometry relative="1" as="geometry" />
        </mxCell>
        <mxCell id="zypsdBxcPxv5_3bh2dCD-32" value="&lt;div style=&quot;&quot;&gt;&lt;strong style=&quot;background-color: initial; font-family: -apple-system, &amp;quot;system-ui&amp;quot;, &amp;quot;Segoe WPC&amp;quot;, &amp;quot;Segoe UI&amp;quot;, system-ui, Ubuntu, &amp;quot;Droid Sans&amp;quot;, sans-serif; font-size: 14px;&quot;&gt;&lt;font color=&quot;#000000&quot;&gt;4. Create impediment&amp;nbsp; and assign to PO&lt;/font&gt;&lt;/strong&gt;&lt;/div&gt;" style="whiteSpace=wrap;html=1;aspect=fixed;fillColor=#178AC2;fontColor=#ffffff;strokeColor=#006EAF;align=center;" vertex="1" parent="zypsdBxcPxv5_3bh2dCD-42">
          <mxGeometry x="511" y="30" width="90" height="90" as="geometry" />
        </mxCell>
        <mxCell id="zypsdBxcPxv5_3bh2dCD-35" value="" style="edgeStyle=orthogonalEdgeStyle;rounded=0;orthogonalLoop=1;jettySize=auto;html=1;strokeColor=#178AC2;" edge="1" parent="zypsdBxcPxv5_3bh2dCD-42" source="zypsdBxcPxv5_3bh2dCD-31" target="zypsdBxcPxv5_3bh2dCD-32">
          <mxGeometry relative="1" as="geometry" />
        </mxCell>
        <mxCell id="zypsdBxcPxv5_3bh2dCD-33" value="&lt;div style=&quot;&quot;&gt;&lt;strong style=&quot;background-color: initial; font-family: -apple-system, &amp;quot;system-ui&amp;quot;, &amp;quot;Segoe WPC&amp;quot;, &amp;quot;Segoe UI&amp;quot;, system-ui, Ubuntu, &amp;quot;Droid Sans&amp;quot;, sans-serif;&quot;&gt;&lt;font style=&quot;font-size: 13px;&quot; color=&quot;#000000&quot;&gt;5. PO Creates PBI with severity and assign to Developer&lt;/font&gt;&lt;/strong&gt;&lt;/div&gt;" style="whiteSpace=wrap;html=1;aspect=fixed;fillColor=#178AC2;fontColor=#ffffff;strokeColor=#006EAF;align=center;" vertex="1" parent="zypsdBxcPxv5_3bh2dCD-42">
          <mxGeometry x="511" y="360" width="90" height="90" as="geometry" />
        </mxCell>
        <mxCell id="zypsdBxcPxv5_3bh2dCD-37" style="edgeStyle=orthogonalEdgeStyle;rounded=0;orthogonalLoop=1;jettySize=auto;html=1;strokeColor=#178AC2;" edge="1" parent="zypsdBxcPxv5_3bh2dCD-42" source="zypsdBxcPxv5_3bh2dCD-32" target="zypsdBxcPxv5_3bh2dCD-33">
          <mxGeometry relative="1" as="geometry" />
        </mxCell>
        <mxCell id="zypsdBxcPxv5_3bh2dCD-53" value="&lt;font style=&quot;font-size: 14px;&quot;&gt;&lt;b&gt;End of process&lt;/b&gt;&lt;/font&gt;" style="rounded=1;whiteSpace=wrap;html=1;fillColor=#178AC2;" vertex="1" parent="zypsdBxcPxv5_3bh2dCD-42">
          <mxGeometry x="1041" y="45" width="120" height="60" as="geometry" />
        </mxCell>
        <mxCell id="zypsdBxcPxv5_3bh2dCD-39" value="&lt;div style=&quot;&quot;&gt;&lt;strong style=&quot;background-color: initial; font-family: -apple-system, &amp;quot;system-ui&amp;quot;, &amp;quot;Segoe WPC&amp;quot;, &amp;quot;Segoe UI&amp;quot;, system-ui, Ubuntu, &amp;quot;Droid Sans&amp;quot;, sans-serif;&quot;&gt;&lt;font style=&quot;font-size: 13px;&quot; color=&quot;#000000&quot;&gt;6. Dev team works on the PBI and push code with fixing issue&lt;/font&gt;&lt;/strong&gt;&lt;/div&gt;" style="whiteSpace=wrap;html=1;aspect=fixed;fillColor=#178AC2;fontColor=#ffffff;strokeColor=#006EAF;align=center;" vertex="1" parent="zypsdBxcPxv5_3bh2dCD-42">
          <mxGeometry x="611" y="200" width="90" height="90" as="geometry" />
        </mxCell>
        <mxCell id="zypsdBxcPxv5_3bh2dCD-40" style="edgeStyle=orthogonalEdgeStyle;rounded=0;orthogonalLoop=1;jettySize=auto;html=1;entryX=0.5;entryY=1;entryDx=0;entryDy=0;strokeColor=#178AC2;" edge="1" parent="zypsdBxcPxv5_3bh2dCD-42" source="zypsdBxcPxv5_3bh2dCD-33" target="zypsdBxcPxv5_3bh2dCD-39">
          <mxGeometry relative="1" as="geometry" />
        </mxCell>
        <mxCell id="zypsdBxcPxv5_3bh2dCD-44" style="edgeStyle=orthogonalEdgeStyle;rounded=0;orthogonalLoop=1;jettySize=auto;html=1;strokeColor=#178AC2;" edge="1" parent="zypsdBxcPxv5_3bh2dCD-42" source="zypsdBxcPxv5_3bh2dCD-39" target="zypsdBxcPxv5_3bh2dCD-41">
          <mxGeometry relative="1" as="geometry" />
        </mxCell>
        <mxCell id="zypsdBxcPxv5_3bh2dCD-30" value="No" style="text;html=1;align=center;verticalAlign=middle;resizable=0;points=[];autosize=1;strokeColor=none;fillColor=none;" vertex="1" parent="zypsdBxcPxv5_3bh2dCD-22">
          <mxGeometry x="380" y="299.51" width="40" height="30" as="geometry" />
        </mxCell>
        <mxCell id="zypsdBxcPxv5_3bh2dCD-38" value="Yes" style="text;html=1;align=center;verticalAlign=middle;resizable=0;points=[];autosize=1;strokeColor=none;fillColor=none;" vertex="1" parent="zypsdBxcPxv5_3bh2dCD-22">
          <mxGeometry x="380" y="162.15999999999997" width="40" height="30" as="geometry" />
        </mxCell>
        <mxCell id="zypsdBxcPxv5_3bh2dCD-7" value="" style="group" vertex="1" connectable="0" parent="1">
          <mxGeometry x="110" y="130" width="1558" height="58" as="geometry" />
        </mxCell>
        <mxCell id="zypsdBxcPxv5_3bh2dCD-1" value="&lt;font style=&quot;font-size: 22px;&quot; color=&quot;#000000&quot;&gt;&lt;b&gt;Security Impediment Trivy workflow&lt;/b&gt;&lt;/font&gt;" style="rounded=0;whiteSpace=wrap;html=1;fillColor=#1ba1e2;fontColor=#ffffff;strokeColor=#006EAF;align=left;" vertex="1" parent="zypsdBxcPxv5_3bh2dCD-7">
          <mxGeometry width="1300.8543689320388" height="48.33333333333333" as="geometry" />
        </mxCell>
        <mxCell id="zypsdBxcPxv5_3bh2dCD-3" value="" style="rounded=0;whiteSpace=wrap;html=1;fillColor=#1ba1e2;fontColor=#ffffff;strokeColor=#006EAF;align=left;" vertex="1" parent="zypsdBxcPxv5_3bh2dCD-7">
          <mxGeometry y="48.33333333333333" width="1300.8543689320388" height="9.666666666666664" as="geometry" />
        </mxCell>
        <mxCell id="zypsdBxcPxv5_3bh2dCD-21" value="" style="group" vertex="1" connectable="0" parent="1">
          <mxGeometry x="110" y="190" width="60" height="480" as="geometry" />
        </mxCell>
        <mxCell id="zypsdBxcPxv5_3bh2dCD-4" value="&lt;font style=&quot;font-size: 20px;&quot;&gt;PO&lt;/font&gt;" style="rounded=0;whiteSpace=wrap;html=1;fillColor=#647687;fontColor=#ffffff;strokeColor=#314354;textDirection=vertical-lr;rotation=-180;" vertex="1" parent="zypsdBxcPxv5_3bh2dCD-21">
          <mxGeometry y="337.2972972972973" width="60" height="142.7027027027027" as="geometry" />
        </mxCell>
        <mxCell id="zypsdBxcPxv5_3bh2dCD-5" value="&lt;font style=&quot;font-size: 20px;&quot;&gt;DevSecOps&lt;/font&gt;" style="rounded=0;whiteSpace=wrap;html=1;fillColor=#1ba1e2;fontColor=#ffffff;strokeColor=#006EAF;textDirection=vertical-lr;rotation=-180;" vertex="1" parent="zypsdBxcPxv5_3bh2dCD-21">
          <mxGeometry width="60" height="155.67567567567568" as="geometry" />
        </mxCell>
        <mxCell id="zypsdBxcPxv5_3bh2dCD-6" value="&lt;font style=&quot;font-size: 20px;&quot;&gt;Development&lt;/font&gt;" style="rounded=0;whiteSpace=wrap;html=1;fillColor=#60a917;fontColor=#ffffff;strokeColor=#2D7600;textDirection=vertical-lr;rotation=-180;" vertex="1" parent="zypsdBxcPxv5_3bh2dCD-21">
          <mxGeometry y="155.67567567567568" width="60" height="181.62162162162164" as="geometry" />
        </mxCell>
      </root>
    </mxGraphModel>
  </diagram>
</mxfile>
